<?xml version="1.0" encoding="utf-8"?>
<!-- Generator: Adobe Illustrator 16.0.0, SVG Export Plug-In . SVG Version: 6.00 Build 0)  -->
<!DOCTYPE svg PUBLIC "-//W3C//DTD SVG 1.1//EN" "http://www.w3.org/Graphics/SVG/1.1/DTD/svg11.dtd">
<svg version="1.1" id="Layer_1" xmlns="http://www.w3.org/2000/svg" xmlns:xlink="http://www.w3.org/1999/xlink" x="0px" y="0px"
	 width="960px" height="560px" viewBox="0 0 960 560" enable-background="new 0 0 960 560" xml:space="preserve">
<g>
	<g>
		<path fill="#F5EA14" d="M177.319,48.18V89.1h13.64V48.18H177.319z M0,48.18V89.1h13.64V48.18H0z M136.399,89.1h13.64V48.18h27.28
			V34.54h-27.28v-13.64c7.664,0,13.795,0,13.795,0V7.26h-41.075c0,0-27.28,0-40.919,0H27.28c0,3.102-0.173,11.644,0,13.64h13.64
			v13.64H13.64v13.64h27.28v41.364c4.183,0.309,8.454-0.382,13.64,0v13.196H27.28v13.64H68.2v13.64h13.64v54.559H40.92v13.641
			h109.119v-13.641h-40.92v-54.559h13.64v-13.64h40.92v-13.64h-27.28V89.1z M163.679,102.739h13.64V89.1h-13.64V102.739z
			 M13.64,89.1v13.64h13.64V89.1H13.64z"/>
	</g>
</g>
</svg>
