<?xml version="1.0" encoding="utf-8"?>
<!-- Generator: Adobe Illustrator 16.0.0, SVG Export Plug-In . SVG Version: 6.00 Build 0)  -->
<!DOCTYPE svg PUBLIC "-//W3C//DTD SVG 1.1//EN" "http://www.w3.org/Graphics/SVG/1.1/DTD/svg11.dtd">
<svg version="1.1" id="Layer_1" xmlns="http://www.w3.org/2000/svg" xmlns:xlink="http://www.w3.org/1999/xlink" x="0px" y="0px"
	 width="960px" height="560px" viewBox="0 0 960 560" enable-background="new 0 0 960 560" xml:space="preserve">
<g>
	<rect x="149.912" y="81.768" fill="#231F20" width="13.631" height="13.627"/>
	<rect x="163.543" y="81.768" fill="#231F20" width="13.627" height="13.627"/>
	<rect x="81.771" y="81.768" fill="#231F20" width="13.628" height="13.627"/>
	<rect x="68.142" y="81.768" fill="#231F20" width="13.63" height="13.627"/>
	<rect x="149.912" y="68.141" fill="#231F20" width="13.631" height="13.627"/>
	<rect x="163.543" y="68.141" fill="#231F20" width="13.627" height="13.627"/>
	<rect x="81.771" y="68.141" fill="#231F20" width="13.628" height="13.627"/>
	<rect x="68.142" y="68.141" fill="#231F20" width="13.63" height="13.627"/>
	<path fill="#FFFFFF" d="M177.17,68.141V54.513h-13.627V40.88h-27.258v13.633h-13.629v40.882h13.629v13.633h27.258V95.395h-13.631
		V68.141H177.17z M81.771,40.88H54.515v13.633H40.886v40.882h13.629v13.633h27.257V95.395h-13.63V68.141h27.258V54.513H81.771V40.88
		z"/>
	<path fill="#70C8C2" d="M177.17,81.768v13.627h-13.627v13.633h-27.258V95.395h-13.629V54.513h13.629V40.88h27.258V27.254h-13.631
		V13.627h-27.256V0H68.142v13.627H40.886v13.627H27.259V40.88H13.63v40.888H0v109.027h13.63v-13.627h13.629v-13.633h13.627v13.633
		h13.629v13.627h27.257v-27.26h27.258v27.26h27.256v-13.627h13.627v-13.633h13.631v13.633h13.627v13.627h13.63V81.768H177.17z
		 M95.399,95.395H81.771v13.633H54.515V95.395H40.886V54.513h13.629V40.88h27.257v13.633h13.628V95.395z M177.17,54.513V40.88
		h-13.627v13.633H177.17z"/>
</g>
</svg>
