<?xml version="1.0" encoding="utf-8"?>
<!-- Generator: Adobe Illustrator 16.0.0, SVG Export Plug-In . SVG Version: 6.00 Build 0)  -->
<!DOCTYPE svg PUBLIC "-//W3C//DTD SVG 1.1//EN" "http://www.w3.org/Graphics/SVG/1.1/DTD/svg11.dtd">
<svg version="1.1" id="Layer_1" xmlns="http://www.w3.org/2000/svg" xmlns:xlink="http://www.w3.org/1999/xlink" x="0px" y="0px"
	 width="960px" height="560px" viewBox="0 0 960 560" enable-background="new 0 0 960 560" xml:space="preserve">
<polygon fill="#F5EA14" points="176.12,73.389 176.12,58.713 176.12,44.032 161.445,44.032 161.445,29.356 146.77,29.356 
	146.77,14.681 132.09,14.681 117.416,14.681 117.416,0 102.737,0 88.062,0 73.383,0 58.708,0 58.708,14.681 44.029,14.681 
	29.352,14.681 29.352,29.356 14.676,29.356 14.676,44.032 0,44.032 0,58.713 14.676,58.713 29.352,58.713 44.029,58.713 
	44.029,73.389 58.708,73.389 73.383,73.389 88.062,73.389 88.062,88.064 102.737,88.064 117.416,88.064 132.09,88.064 
	132.09,102.739 132.09,117.414 117.416,117.414 102.737,117.414 88.062,117.414 88.062,132.09 73.383,132.09 58.708,132.09 
	44.029,132.09 44.029,146.765 29.352,146.765 14.676,146.765 0,146.765 0,161.447 14.676,161.447 14.676,176.122 29.352,176.122 
	29.352,190.797 44.029,190.797 58.708,190.797 58.708,205.479 73.383,205.479 88.062,205.479 102.737,205.479 117.416,205.479 
	117.416,190.797 132.09,190.797 146.77,190.797 146.77,176.122 161.445,176.122 161.445,161.447 176.12,161.447 176.12,146.765 
	176.12,132.09 190.798,132.09 190.798,117.414 190.798,102.739 190.798,88.064 190.798,73.389 "/>
</svg>
